<?xml version="1.0" encoding="UTF-8" standalone="no"?>
<!DOCTYPE svg PUBLIC "-//W3C//DTD SVG 1.1//EN"
 "http://www.w3.org/Graphics/SVG/1.1/DTD/svg11.dtd">
<!-- Generated by graphviz version 2.46.1 (20210213.1702)
 -->
<!-- Title: dependencies Pages: 1 -->
<svg width="977pt" height="284pt"
 viewBox="0.00 0.00 977.00 284.00" xmlns="http://www.w3.org/2000/svg" xmlns:xlink="http://www.w3.org/1999/xlink">
<g id="graph0" class="graph" transform="scale(1 1) rotate(0) translate(4 280)">
<title>dependencies</title>
<polygon fill="white" stroke="transparent" points="-4,4 -4,-280 973,-280 973,4 -4,4"/>
<text text-anchor="start" x="463.51" y="-42.4" font-family="sans-serif" font-weight="bold" font-size="14.00">Legend</text>
<polygon fill="#ffffb3" stroke="transparent" points="250.5,-10 250.5,-30 270.5,-30 270.5,-10 250.5,-10"/>
<text text-anchor="start" x="274.13" y="-15.4" font-family="sans-serif" font-size="14.00"> &#160;Declarations</text>
<polygon fill="#8dd3c7" stroke="transparent" points="363.5,-10 363.5,-30 383.5,-30 383.5,-10 363.5,-10"/>
<text text-anchor="start" x="387.23" y="-15.4" font-family="sans-serif" font-size="14.00"> &#160;Module</text>
<polygon fill="#80b1d3" stroke="transparent" points="449.5,-10 449.5,-30 469.5,-30 469.5,-10 449.5,-10"/>
<text text-anchor="start" x="473.28" y="-15.4" font-family="sans-serif" font-size="14.00"> &#160;Bootstrap</text>
<polygon fill="#fdb462" stroke="transparent" points="546.5,-10 546.5,-30 566.5,-30 566.5,-10 546.5,-10"/>
<text text-anchor="start" x="570.17" y="-15.4" font-family="sans-serif" font-size="14.00"> &#160;Providers</text>
<polygon fill="#fb8072" stroke="transparent" points="642.5,-10 642.5,-30 662.5,-30 662.5,-10 642.5,-10"/>
<text text-anchor="start" x="666.23" y="-15.4" font-family="sans-serif" font-size="14.00"> &#160;Exports</text>
<g id="clust1" class="cluster">
<title>cluster_SharedModule</title>
<polygon fill="none" stroke="black" stroke-dasharray="1,5" points="8,-70 8,-268 961,-268 961,-70 8,-70"/>
</g>
<g id="clust8" class="cluster">
<title>cluster_SharedModule_imports</title>
<polygon fill="none" stroke="black" points="825,-78 825,-130 947,-130 947,-78 825,-78"/>
</g>
<g id="clust9" class="cluster">
<title>cluster_SharedModule_exports</title>
<polygon fill="none" stroke="black" points="16,-208 16,-260 953,-260 953,-208 16,-208"/>
</g>
<g id="clust2" class="cluster">
<title>cluster_SharedModule_declarations</title>
<polygon fill="none" stroke="black" points="26,-78 26,-130 817,-130 817,-78 26,-78"/>
</g>
<!-- CodeEditorComponent -->
<g id="node1" class="node">
<title>CodeEditorComponent</title>
<polygon fill="#ffffb3" stroke="black" points="808.88,-122 663.12,-122 663.12,-86 808.88,-86 808.88,-122"/>
<text text-anchor="middle" x="736" y="-99.8" font-family="Times,serif" font-size="14.00">CodeEditorComponent</text>
</g>
<!-- SharedModule -->
<g id="node6" class="node">
<title>SharedModule</title>
<polygon fill="#8dd3c7" stroke="black" points="417.42,-187 414.42,-191 393.42,-191 390.42,-187 318.58,-187 318.58,-151 417.42,-151 417.42,-187"/>
<text text-anchor="middle" x="368" y="-164.8" font-family="Times,serif" font-size="14.00">SharedModule</text>
</g>
<!-- CodeEditorComponent&#45;&gt;SharedModule -->
<g id="edge1" class="edge">
<title>CodeEditorComponent&#45;&gt;SharedModule</title>
<path fill="none" stroke="black" d="M703.59,-122.03C703.59,-139.06 703.59,-162 703.59,-162 703.59,-162 427.52,-162 427.52,-162"/>
<polygon fill="black" stroke="black" points="427.52,-158.5 417.52,-162 427.52,-165.5 427.52,-158.5"/>
</g>
<!-- QuestionDescriptionComponent -->
<g id="node2" class="node">
<title>QuestionDescriptionComponent</title>
<polygon fill="#ffffb3" stroke="black" points="644.69,-122 447.31,-122 447.31,-86 644.69,-86 644.69,-122"/>
<text text-anchor="middle" x="546" y="-99.8" font-family="Times,serif" font-size="14.00">QuestionDescriptionComponent</text>
</g>
<!-- QuestionDescriptionComponent&#45;&gt;SharedModule -->
<g id="edge2" class="edge">
<title>QuestionDescriptionComponent&#45;&gt;SharedModule</title>
<path fill="none" stroke="black" d="M578.95,-122.24C578.95,-137.57 578.95,-157 578.95,-157 578.95,-157 427.46,-157 427.46,-157"/>
<polygon fill="black" stroke="black" points="427.46,-153.5 417.46,-157 427.46,-160.5 427.46,-153.5"/>
</g>
<!-- RunScriptsDirective -->
<g id="node3" class="node">
<title>RunScriptsDirective</title>
<polygon fill="#ffffb3" stroke="black" points="429.3,-122 298.7,-122 298.7,-86 429.3,-86 429.3,-122"/>
<text text-anchor="middle" x="364" y="-99.8" font-family="Times,serif" font-size="14.00">RunScriptsDirective</text>
</g>
<!-- RunScriptsDirective&#45;&gt;SharedModule -->
<g id="edge3" class="edge">
<title>RunScriptsDirective&#45;&gt;SharedModule</title>
<path fill="none" stroke="black" d="M368,-122.11C368,-122.11 368,-140.99 368,-140.99"/>
<polygon fill="black" stroke="black" points="364.5,-140.99 368,-150.99 371.5,-140.99 364.5,-140.99"/>
</g>
<!-- SafeHtmlPipe -->
<g id="node4" class="node">
<title>SafeHtmlPipe</title>
<polygon fill="#ffffb3" stroke="black" points="281.04,-122 186.96,-122 186.96,-86 281.04,-86 281.04,-122"/>
<text text-anchor="middle" x="234" y="-99.8" font-family="Times,serif" font-size="14.00">SafeHtmlPipe</text>
</g>
<!-- SafeHtmlPipe&#45;&gt;SharedModule -->
<g id="edge4" class="edge">
<title>SafeHtmlPipe&#45;&gt;SharedModule</title>
<path fill="none" stroke="black" d="M247.59,-122.01C247.59,-138.05 247.59,-159 247.59,-159 247.59,-159 308.68,-159 308.68,-159"/>
<polygon fill="black" stroke="black" points="308.68,-162.5 318.68,-159 308.68,-155.5 308.68,-162.5"/>
</g>
<!-- TimeConversionPipe -->
<g id="node5" class="node">
<title>TimeConversionPipe</title>
<polygon fill="#ffffb3" stroke="black" points="168.48,-122 33.52,-122 33.52,-86 168.48,-86 168.48,-122"/>
<text text-anchor="middle" x="101" y="-99.8" font-family="Times,serif" font-size="14.00">TimeConversionPipe</text>
</g>
<!-- TimeConversionPipe&#45;&gt;SharedModule -->
<g id="edge5" class="edge">
<title>TimeConversionPipe&#45;&gt;SharedModule</title>
<path fill="none" stroke="black" d="M119.33,-122.27C119.33,-140.56 119.33,-166 119.33,-166 119.33,-166 308.57,-166 308.57,-166"/>
<polygon fill="black" stroke="black" points="308.57,-169.5 318.57,-166 308.57,-162.5 308.57,-169.5"/>
</g>
<!-- CodeEditorComponent  -->
<g id="node8" class="node">
<title>CodeEditorComponent </title>
<polygon fill="#fb8072" stroke="black" points="944.88,-252 795.12,-252 795.12,-216 944.88,-216 944.88,-252"/>
<text text-anchor="middle" x="870" y="-229.8" font-family="Times,serif" font-size="14.00">CodeEditorComponent </text>
</g>
<!-- SharedModule&#45;&gt;CodeEditorComponent  -->
<g id="edge7" class="edge">
<title>SharedModule&#45;&gt;CodeEditorComponent </title>
<path fill="none" stroke="black" stroke-dasharray="5,2" d="M417.38,-172C531.16,-172 802.12,-172 802.12,-172 802.12,-172 802.12,-205.73 802.12,-205.73"/>
<polygon fill="black" stroke="black" points="798.63,-205.73 802.12,-215.73 805.63,-205.73 798.63,-205.73"/>
</g>
<!-- MaterialModule  -->
<g id="node9" class="node">
<title>MaterialModule </title>
<polygon fill="#fb8072" stroke="black" points="777.47,-252 666.53,-252 666.53,-216 777.47,-216 777.47,-252"/>
<text text-anchor="middle" x="722" y="-229.8" font-family="Times,serif" font-size="14.00">MaterialModule </text>
</g>
<!-- SharedModule&#45;&gt;MaterialModule  -->
<g id="edge8" class="edge">
<title>SharedModule&#45;&gt;MaterialModule </title>
<path fill="none" stroke="black" stroke-dasharray="5,2" d="M417.45,-177C518.76,-177 740.41,-177 740.41,-177 740.41,-177 740.41,-205.96 740.41,-205.96"/>
<polygon fill="black" stroke="black" points="736.91,-205.96 740.41,-215.96 743.91,-205.96 736.91,-205.96"/>
</g>
<!-- QuestionDescriptionComponent  -->
<g id="node10" class="node">
<title>QuestionDescriptionComponent </title>
<polygon fill="#fb8072" stroke="black" points="648.19,-252 447.81,-252 447.81,-216 648.19,-216 648.19,-252"/>
<text text-anchor="middle" x="548" y="-229.8" font-family="Times,serif" font-size="14.00">QuestionDescriptionComponent </text>
</g>
<!-- SharedModule&#45;&gt;QuestionDescriptionComponent  -->
<g id="edge9" class="edge">
<title>SharedModule&#45;&gt;QuestionDescriptionComponent </title>
<path fill="none" stroke="black" stroke-dasharray="5,2" d="M417.6,-182C459.69,-182 513.3,-182 513.3,-182 513.3,-182 513.3,-205.81 513.3,-205.81"/>
<polygon fill="black" stroke="black" points="509.8,-205.81 513.3,-215.81 516.8,-205.81 509.8,-205.81"/>
</g>
<!-- RunScriptsDirective  -->
<g id="node11" class="node">
<title>RunScriptsDirective </title>
<polygon fill="#fb8072" stroke="black" points="429.8,-252 296.2,-252 296.2,-216 429.8,-216 429.8,-252"/>
<text text-anchor="middle" x="363" y="-229.8" font-family="Times,serif" font-size="14.00">RunScriptsDirective </text>
</g>
<!-- SharedModule&#45;&gt;RunScriptsDirective  -->
<g id="edge10" class="edge">
<title>SharedModule&#45;&gt;RunScriptsDirective </title>
<path fill="none" stroke="black" stroke-dasharray="5,2" d="M368,-187.11C368,-187.11 368,-205.99 368,-205.99"/>
<polygon fill="black" stroke="black" points="364.5,-205.99 368,-215.99 371.5,-205.99 364.5,-205.99"/>
</g>
<!-- SafeHtmlPipe  -->
<g id="node12" class="node">
<title>SafeHtmlPipe </title>
<polygon fill="#fb8072" stroke="black" points="278.04,-252 179.96,-252 179.96,-216 278.04,-216 278.04,-252"/>
<text text-anchor="middle" x="229" y="-229.8" font-family="Times,serif" font-size="14.00">SafeHtmlPipe </text>
</g>
<!-- SharedModule&#45;&gt;SafeHtmlPipe  -->
<g id="edge11" class="edge">
<title>SharedModule&#45;&gt;SafeHtmlPipe </title>
<path fill="none" stroke="black" stroke-dasharray="5,2" d="M318.61,-180C274.62,-180 217.16,-180 217.16,-180 217.16,-180 217.16,-205.72 217.16,-205.72"/>
<polygon fill="black" stroke="black" points="213.66,-205.72 217.16,-215.72 220.66,-205.72 213.66,-205.72"/>
</g>
<!-- TimeConversionPipe  -->
<g id="node13" class="node">
<title>TimeConversionPipe </title>
<polygon fill="#fb8072" stroke="black" points="162.48,-252 23.52,-252 23.52,-216 162.48,-216 162.48,-252"/>
<text text-anchor="middle" x="93" y="-229.8" font-family="Times,serif" font-size="14.00">TimeConversionPipe </text>
</g>
<!-- SharedModule&#45;&gt;TimeConversionPipe  -->
<g id="edge12" class="edge">
<title>SharedModule&#45;&gt;TimeConversionPipe </title>
<path fill="none" stroke="black" stroke-dasharray="5,2" d="M318.54,-173C235.35,-173 76.42,-173 76.42,-173 76.42,-173 76.42,-205.7 76.42,-205.7"/>
<polygon fill="black" stroke="black" points="72.92,-205.7 76.42,-215.7 79.92,-205.7 72.92,-205.7"/>
</g>
<!-- MaterialModule -->
<g id="node7" class="node">
<title>MaterialModule</title>
<polygon fill="#8dd3c7" stroke="black" points="939.47,-122 936.47,-126 915.47,-126 912.47,-122 832.53,-122 832.53,-86 939.47,-86 939.47,-122"/>
<text text-anchor="middle" x="886" y="-99.8" font-family="Times,serif" font-size="14.00">MaterialModule</text>
</g>
<!-- MaterialModule&#45;&gt;SharedModule -->
<g id="edge6" class="edge">
<title>MaterialModule&#45;&gt;SharedModule</title>
<path fill="none" stroke="black" d="M886,-122.22C886,-140.83 886,-167 886,-167 886,-167 427.67,-167 427.67,-167"/>
<polygon fill="black" stroke="black" points="427.67,-163.5 417.67,-167 427.67,-170.5 427.67,-163.5"/>
</g>
</g>
</svg>
