<?xml version="1.0" encoding="UTF-8" standalone="no"?>
<!DOCTYPE svg PUBLIC "-//W3C//DTD SVG 1.1//EN"
 "http://www.w3.org/Graphics/SVG/1.1/DTD/svg11.dtd">
<!-- Generated by graphviz version 2.46.1 (20210213.1702)
 -->
<!-- Title: dependencies Pages: 1 -->
<svg width="1202pt" height="284pt"
 viewBox="0.00 0.00 1202.00 284.00" xmlns="http://www.w3.org/2000/svg" xmlns:xlink="http://www.w3.org/1999/xlink">
<g id="graph0" class="graph" transform="scale(1 1) rotate(0) translate(4 280)">
<title>dependencies</title>
<polygon fill="white" stroke="transparent" points="-4,4 -4,-280 1198,-280 1198,4 -4,4"/>
<text text-anchor="start" x="576.01" y="-42.4" font-family="sans-serif" font-weight="bold" font-size="14.00">Legend</text>
<polygon fill="#ffffb3" stroke="transparent" points="363,-10 363,-30 383,-30 383,-10 363,-10"/>
<text text-anchor="start" x="386.63" y="-15.4" font-family="sans-serif" font-size="14.00"> &#160;Declarations</text>
<polygon fill="#8dd3c7" stroke="transparent" points="476,-10 476,-30 496,-30 496,-10 476,-10"/>
<text text-anchor="start" x="499.73" y="-15.4" font-family="sans-serif" font-size="14.00"> &#160;Module</text>
<polygon fill="#80b1d3" stroke="transparent" points="562,-10 562,-30 582,-30 582,-10 562,-10"/>
<text text-anchor="start" x="585.78" y="-15.4" font-family="sans-serif" font-size="14.00"> &#160;Bootstrap</text>
<polygon fill="#fdb462" stroke="transparent" points="659,-10 659,-30 679,-30 679,-10 659,-10"/>
<text text-anchor="start" x="682.67" y="-15.4" font-family="sans-serif" font-size="14.00"> &#160;Providers</text>
<polygon fill="#fb8072" stroke="transparent" points="755,-10 755,-30 775,-30 775,-10 755,-10"/>
<text text-anchor="start" x="778.73" y="-15.4" font-family="sans-serif" font-size="14.00"> &#160;Exports</text>
<g id="clust1" class="cluster">
<title>cluster_AppModule</title>
<polygon fill="none" stroke="black" stroke-dasharray="1,5" points="8,-70 8,-268 1186,-268 1186,-70 8,-70"/>
</g>
<g id="clust8" class="cluster">
<title>cluster_AppModule_imports</title>
<polygon fill="none" stroke="black" points="917,-78 917,-130 1178,-130 1178,-78 917,-78"/>
</g>
<g id="clust10" class="cluster">
<title>cluster_AppModule_bootstrap</title>
<polygon fill="none" stroke="black" points="593,-208 593,-260 717,-260 717,-208 593,-208"/>
</g>
<g id="clust2" class="cluster">
<title>cluster_AppModule_declarations</title>
<polygon fill="none" stroke="black" points="234,-78 234,-130 909,-130 909,-78 234,-78"/>
</g>
<g id="clust11" class="cluster">
<title>cluster_AppModule_providers</title>
<polygon fill="none" stroke="black" points="16,-78 16,-130 226,-130 226,-78 16,-78"/>
</g>
<!-- AppComponent -->
<g id="node1" class="node">
<title>AppComponent</title>
<polygon fill="#ffffb3" stroke="black" points="900.94,-122 795.06,-122 795.06,-86 900.94,-86 900.94,-122"/>
<text text-anchor="middle" x="848" y="-99.8" font-family="Times,serif" font-size="14.00">AppComponent</text>
</g>
<!-- AppModule -->
<g id="node6" class="node">
<title>AppModule</title>
<polygon fill="#8dd3c7" stroke="black" points="696.66,-187 693.66,-191 672.66,-191 669.66,-187 613.34,-187 613.34,-151 696.66,-151 696.66,-187"/>
<text text-anchor="middle" x="655" y="-164.8" font-family="Times,serif" font-size="14.00">AppModule</text>
</g>
<!-- AppComponent&#45;&gt;AppModule -->
<g id="edge1" class="edge">
<title>AppComponent&#45;&gt;AppModule</title>
<path fill="none" stroke="black" d="M848,-122.03C848,-138.4 848,-160 848,-160 848,-160 706.88,-160 706.88,-160"/>
<polygon fill="black" stroke="black" points="706.88,-156.5 696.88,-160 706.88,-163.5 706.88,-156.5"/>
</g>
<!-- LoginComponent -->
<g id="node2" class="node">
<title>LoginComponent</title>
<polygon fill="#ffffb3" stroke="black" points="777.28,-122 662.72,-122 662.72,-86 777.28,-86 777.28,-122"/>
<text text-anchor="middle" x="720" y="-99.8" font-family="Times,serif" font-size="14.00">LoginComponent</text>
</g>
<!-- LoginComponent&#45;&gt;AppModule -->
<g id="edge2" class="edge">
<title>LoginComponent&#45;&gt;AppModule</title>
<path fill="none" stroke="black" d="M679.72,-122.11C679.72,-122.11 679.72,-140.99 679.72,-140.99"/>
<polygon fill="black" stroke="black" points="676.22,-140.99 679.72,-150.99 683.22,-140.99 676.22,-140.99"/>
</g>
<!-- ShellComponent -->
<g id="node3" class="node">
<title>ShellComponent</title>
<polygon fill="#ffffb3" stroke="black" points="645.11,-122 534.89,-122 534.89,-86 645.11,-86 645.11,-122"/>
<text text-anchor="middle" x="590" y="-99.8" font-family="Times,serif" font-size="14.00">ShellComponent</text>
</g>
<!-- ShellComponent&#45;&gt;AppModule -->
<g id="edge3" class="edge">
<title>ShellComponent&#45;&gt;AppModule</title>
<path fill="none" stroke="black" d="M629.11,-122.11C629.11,-122.11 629.11,-140.99 629.11,-140.99"/>
<polygon fill="black" stroke="black" points="625.61,-140.99 629.11,-150.99 632.61,-140.99 625.61,-140.99"/>
</g>
<!-- SideNavComponent -->
<g id="node4" class="node">
<title>SideNavComponent</title>
<polygon fill="#ffffb3" stroke="black" points="516.54,-122 387.46,-122 387.46,-86 516.54,-86 516.54,-122"/>
<text text-anchor="middle" x="452" y="-99.8" font-family="Times,serif" font-size="14.00">SideNavComponent</text>
</g>
<!-- SideNavComponent&#45;&gt;AppModule -->
<g id="edge4" class="edge">
<title>SideNavComponent&#45;&gt;AppModule</title>
<path fill="none" stroke="black" d="M452,-122.03C452,-138.4 452,-160 452,-160 452,-160 602.94,-160 602.94,-160"/>
<polygon fill="black" stroke="black" points="602.94,-163.5 612.94,-160 602.94,-156.5 602.94,-163.5"/>
</g>
<!-- TopNavComponent -->
<g id="node5" class="node">
<title>TopNavComponent</title>
<polygon fill="#ffffb3" stroke="black" points="369.71,-122 242.29,-122 242.29,-86 369.71,-86 369.71,-122"/>
<text text-anchor="middle" x="306" y="-99.8" font-family="Times,serif" font-size="14.00">TopNavComponent</text>
</g>
<!-- TopNavComponent&#45;&gt;AppModule -->
<g id="edge5" class="edge">
<title>TopNavComponent&#45;&gt;AppModule</title>
<path fill="none" stroke="black" d="M306,-122.11C306,-141.34 306,-169 306,-169 306,-169 603.25,-169 603.25,-169"/>
<polygon fill="black" stroke="black" points="603.25,-172.5 613.25,-169 603.25,-165.5 603.25,-172.5"/>
</g>
<!-- AppComponent  -->
<g id="node9" class="node">
<title>AppComponent </title>
<polygon fill="#80b1d3" stroke="black" points="709.44,-252 600.56,-252 600.56,-216 709.44,-216 709.44,-252"/>
<text text-anchor="middle" x="655" y="-229.8" font-family="Times,serif" font-size="14.00">AppComponent </text>
</g>
<!-- AppModule&#45;&gt;AppComponent  -->
<g id="edge8" class="edge">
<title>AppModule&#45;&gt;AppComponent </title>
<path fill="none" stroke="black" stroke-dasharray="1,5" d="M655,-187.11C655,-187.11 655,-205.99 655,-205.99"/>
<polygon fill="black" stroke="black" points="651.5,-205.99 655,-215.99 658.5,-205.99 651.5,-205.99"/>
</g>
<!-- AppRoutingModule -->
<g id="node7" class="node">
<title>AppRoutingModule</title>
<polygon fill="#8dd3c7" stroke="black" points="1170.27,-122 1167.27,-126 1146.27,-126 1143.27,-122 1041.73,-122 1041.73,-86 1170.27,-86 1170.27,-122"/>
<text text-anchor="middle" x="1106" y="-99.8" font-family="Times,serif" font-size="14.00">AppRoutingModule</text>
</g>
<!-- AppRoutingModule&#45;&gt;AppModule -->
<g id="edge6" class="edge">
<title>AppRoutingModule&#45;&gt;AppModule</title>
<path fill="none" stroke="black" d="M1106,-122.29C1106,-144.21 1106,-178 1106,-178 1106,-178 707.02,-178 707.02,-178"/>
<polygon fill="black" stroke="black" points="707.02,-174.5 697.02,-178 707.02,-181.5 707.02,-174.5"/>
</g>
<!-- SharedModule -->
<g id="node8" class="node">
<title>SharedModule</title>
<polygon fill="#8dd3c7" stroke="black" points="1023.42,-122 1020.42,-126 999.42,-126 996.42,-122 924.58,-122 924.58,-86 1023.42,-86 1023.42,-122"/>
<text text-anchor="middle" x="974" y="-99.8" font-family="Times,serif" font-size="14.00">SharedModule</text>
</g>
<!-- SharedModule&#45;&gt;AppModule -->
<g id="edge7" class="edge">
<title>SharedModule&#45;&gt;AppModule</title>
<path fill="none" stroke="black" d="M974,-122.11C974,-141.34 974,-169 974,-169 974,-169 706.7,-169 706.7,-169"/>
<polygon fill="black" stroke="black" points="706.7,-165.5 696.7,-169 706.7,-172.5 706.7,-165.5"/>
</g>
<!-- AuthenticationService -->
<g id="node10" class="node">
<title>AuthenticationService</title>
<ellipse fill="#fdb462" stroke="black" cx="121" cy="-104" rx="97.27" ry="18"/>
<text text-anchor="middle" x="121" y="-99.8" font-family="Times,serif" font-size="14.00">AuthenticationService</text>
</g>
<!-- AuthenticationService&#45;&gt;AppModule -->
<g id="edge9" class="edge">
<title>AuthenticationService&#45;&gt;AppModule</title>
<path fill="none" stroke="black" d="M121,-122.29C121,-144.21 121,-178 121,-178 121,-178 603.1,-178 603.1,-178"/>
<polygon fill="black" stroke="black" points="603.1,-181.5 613.1,-178 603.1,-174.5 603.1,-181.5"/>
</g>
</g>
</svg>
