<?xml version="1.0" encoding="UTF-8" standalone="no"?>
<!DOCTYPE svg PUBLIC "-//W3C//DTD SVG 1.1//EN"
 "http://www.w3.org/Graphics/SVG/1.1/DTD/svg11.dtd">
<!-- Generated by graphviz version 2.46.1 (20210213.1702)
 -->
<!-- Title: dependencies Pages: 1 -->
<svg width="830pt" height="211pt"
 viewBox="0.00 0.00 830.00 211.00" xmlns="http://www.w3.org/2000/svg" xmlns:xlink="http://www.w3.org/1999/xlink">
<g id="graph0" class="graph" transform="scale(1 1) rotate(0) translate(4 207)">
<title>dependencies</title>
<polygon fill="white" stroke="transparent" points="-4,4 -4,-207 826,-207 826,4 -4,4"/>
<text text-anchor="start" x="390.01" y="-42.4" font-family="sans-serif" font-weight="bold" font-size="14.00">Legend</text>
<polygon fill="#ffffb3" stroke="transparent" points="177,-10 177,-30 197,-30 197,-10 177,-10"/>
<text text-anchor="start" x="200.63" y="-15.4" font-family="sans-serif" font-size="14.00"> &#160;Declarations</text>
<polygon fill="#8dd3c7" stroke="transparent" points="290,-10 290,-30 310,-30 310,-10 290,-10"/>
<text text-anchor="start" x="313.73" y="-15.4" font-family="sans-serif" font-size="14.00"> &#160;Module</text>
<polygon fill="#80b1d3" stroke="transparent" points="376,-10 376,-30 396,-30 396,-10 376,-10"/>
<text text-anchor="start" x="399.78" y="-15.4" font-family="sans-serif" font-size="14.00"> &#160;Bootstrap</text>
<polygon fill="#fdb462" stroke="transparent" points="473,-10 473,-30 493,-30 493,-10 473,-10"/>
<text text-anchor="start" x="496.67" y="-15.4" font-family="sans-serif" font-size="14.00"> &#160;Providers</text>
<polygon fill="#fb8072" stroke="transparent" points="569,-10 569,-30 589,-30 589,-10 569,-10"/>
<text text-anchor="start" x="592.73" y="-15.4" font-family="sans-serif" font-size="14.00"> &#160;Exports</text>
<g id="clust1" class="cluster">
<title>cluster_SpacesModule</title>
<polygon fill="none" stroke="black" stroke-dasharray="1,5" points="8,-70 8,-195 814,-195 814,-70 8,-70"/>
</g>
<g id="clust2" class="cluster">
<title>cluster_SpacesModule_declarations</title>
<polygon fill="none" stroke="black" points="458,-78 458,-130 806,-130 806,-78 458,-78"/>
</g>
<g id="clust5" class="cluster">
<title>cluster_SpacesModule_imports</title>
<polygon fill="none" stroke="black" points="174,-78 174,-130 450,-130 450,-78 174,-78"/>
</g>
<g id="clust8" class="cluster">
<title>cluster_SpacesModule_providers</title>
<polygon fill="none" stroke="black" points="16,-78 16,-130 166,-130 166,-78 16,-78"/>
</g>
<!-- SpaceCreationFormComponent -->
<g id="node1" class="node">
<title>SpaceCreationFormComponent</title>
<polygon fill="#ffffb3" stroke="black" points="797.8,-122 604.2,-122 604.2,-86 797.8,-86 797.8,-122"/>
<text text-anchor="middle" x="701" y="-99.8" font-family="Times,serif" font-size="14.00">SpaceCreationFormComponent</text>
</g>
<!-- SpacesModule -->
<g id="node3" class="node">
<title>SpacesModule</title>
<polygon fill="#8dd3c7" stroke="black" points="442.42,-187 439.42,-191 418.42,-191 415.42,-187 343.58,-187 343.58,-151 442.42,-151 442.42,-187"/>
<text text-anchor="middle" x="393" y="-164.8" font-family="Times,serif" font-size="14.00">SpacesModule</text>
</g>
<!-- SpaceCreationFormComponent&#45;&gt;SpacesModule -->
<g id="edge1" class="edge">
<title>SpaceCreationFormComponent&#45;&gt;SpacesModule</title>
<path fill="none" stroke="black" d="M701,-122.28C701,-143.32 701,-175 701,-175 701,-175 452.49,-175 452.49,-175"/>
<polygon fill="black" stroke="black" points="452.49,-171.5 442.49,-175 452.49,-178.5 452.49,-171.5"/>
</g>
<!-- SpacesComponent -->
<g id="node2" class="node">
<title>SpacesComponent</title>
<polygon fill="#ffffb3" stroke="black" points="586.2,-122 465.8,-122 465.8,-86 586.2,-86 586.2,-122"/>
<text text-anchor="middle" x="526" y="-99.8" font-family="Times,serif" font-size="14.00">SpacesComponent</text>
</g>
<!-- SpacesComponent&#45;&gt;SpacesModule -->
<g id="edge2" class="edge">
<title>SpacesComponent&#45;&gt;SpacesModule</title>
<path fill="none" stroke="black" d="M526,-122.02C526,-139.37 526,-163 526,-163 526,-163 452.52,-163 452.52,-163"/>
<polygon fill="black" stroke="black" points="452.52,-159.5 442.52,-163 452.52,-166.5 452.52,-159.5"/>
</g>
<!-- SharedModule -->
<g id="node4" class="node">
<title>SharedModule</title>
<polygon fill="#8dd3c7" stroke="black" points="442.42,-122 439.42,-126 418.42,-126 415.42,-122 343.58,-122 343.58,-86 442.42,-86 442.42,-122"/>
<text text-anchor="middle" x="393" y="-99.8" font-family="Times,serif" font-size="14.00">SharedModule</text>
</g>
<!-- SharedModule&#45;&gt;SpacesModule -->
<g id="edge3" class="edge">
<title>SharedModule&#45;&gt;SpacesModule</title>
<path fill="none" stroke="black" d="M393,-122.11C393,-122.11 393,-140.99 393,-140.99"/>
<polygon fill="black" stroke="black" points="389.5,-140.99 393,-150.99 396.5,-140.99 389.5,-140.99"/>
</g>
<!-- SpacesRoutingModule -->
<g id="node5" class="node">
<title>SpacesRoutingModule</title>
<polygon fill="#8dd3c7" stroke="black" points="325.54,-122 322.54,-126 301.54,-126 298.54,-122 182.46,-122 182.46,-86 325.54,-86 325.54,-122"/>
<text text-anchor="middle" x="254" y="-99.8" font-family="Times,serif" font-size="14.00">SpacesRoutingModule</text>
</g>
<!-- SpacesRoutingModule&#45;&gt;SpacesModule -->
<g id="edge4" class="edge">
<title>SpacesRoutingModule&#45;&gt;SpacesModule</title>
<path fill="none" stroke="black" d="M254,-122.02C254,-139.37 254,-163 254,-163 254,-163 333.6,-163 333.6,-163"/>
<polygon fill="black" stroke="black" points="333.6,-166.5 343.6,-163 333.6,-159.5 333.6,-166.5"/>
</g>
<!-- SpacesService -->
<g id="node6" class="node">
<title>SpacesService</title>
<ellipse fill="#fdb462" stroke="black" cx="91" cy="-104" rx="66.61" ry="18"/>
<text text-anchor="middle" x="91" y="-99.8" font-family="Times,serif" font-size="14.00">SpacesService</text>
</g>
<!-- SpacesService&#45;&gt;SpacesModule -->
<g id="edge5" class="edge">
<title>SpacesService&#45;&gt;SpacesModule</title>
<path fill="none" stroke="black" d="M91,-122.28C91,-143.32 91,-175 91,-175 91,-175 333.47,-175 333.47,-175"/>
<polygon fill="black" stroke="black" points="333.47,-178.5 343.47,-175 333.47,-171.5 333.47,-178.5"/>
</g>
</g>
</svg>
