<?xml version="1.0" encoding="UTF-8" standalone="no"?>
<!DOCTYPE svg PUBLIC "-//W3C//DTD SVG 1.1//EN"
 "http://www.w3.org/Graphics/SVG/1.1/DTD/svg11.dtd">
<!-- Generated by graphviz version 2.46.1 (20210213.1702)
 -->
<!-- Title: dependencies Pages: 1 -->
<svg width="1070pt" height="211pt"
 viewBox="0.00 0.00 1070.00 211.00" xmlns="http://www.w3.org/2000/svg" xmlns:xlink="http://www.w3.org/1999/xlink">
<g id="graph0" class="graph" transform="scale(1 1) rotate(0) translate(4 207)">
<title>dependencies</title>
<polygon fill="white" stroke="transparent" points="-4,4 -4,-207 1066,-207 1066,4 -4,4"/>
<text text-anchor="start" x="510.01" y="-42.4" font-family="sans-serif" font-weight="bold" font-size="14.00">Legend</text>
<polygon fill="#ffffb3" stroke="transparent" points="297,-10 297,-30 317,-30 317,-10 297,-10"/>
<text text-anchor="start" x="320.63" y="-15.4" font-family="sans-serif" font-size="14.00"> &#160;Declarations</text>
<polygon fill="#8dd3c7" stroke="transparent" points="410,-10 410,-30 430,-30 430,-10 410,-10"/>
<text text-anchor="start" x="433.73" y="-15.4" font-family="sans-serif" font-size="14.00"> &#160;Module</text>
<polygon fill="#80b1d3" stroke="transparent" points="496,-10 496,-30 516,-30 516,-10 496,-10"/>
<text text-anchor="start" x="519.78" y="-15.4" font-family="sans-serif" font-size="14.00"> &#160;Bootstrap</text>
<polygon fill="#fdb462" stroke="transparent" points="593,-10 593,-30 613,-30 613,-10 593,-10"/>
<text text-anchor="start" x="616.67" y="-15.4" font-family="sans-serif" font-size="14.00"> &#160;Providers</text>
<polygon fill="#fb8072" stroke="transparent" points="689,-10 689,-30 709,-30 709,-10 689,-10"/>
<text text-anchor="start" x="712.73" y="-15.4" font-family="sans-serif" font-size="14.00"> &#160;Exports</text>
<g id="clust1" class="cluster">
<title>cluster_HomeModule</title>
<polygon fill="none" stroke="black" stroke-dasharray="1,5" points="8,-70 8,-195 1054,-195 1054,-70 8,-70"/>
</g>
<g id="clust2" class="cluster">
<title>cluster_HomeModule_declarations</title>
<polygon fill="none" stroke="black" points="624,-78 624,-130 1046,-130 1046,-78 624,-78"/>
</g>
<g id="clust9" class="cluster">
<title>cluster_HomeModule_providers</title>
<polygon fill="none" stroke="black" points="295,-78 295,-130 616,-130 616,-78 295,-78"/>
</g>
<g id="clust6" class="cluster">
<title>cluster_HomeModule_imports</title>
<polygon fill="none" stroke="black" points="16,-78 16,-130 287,-130 287,-78 16,-78"/>
</g>
<!-- BlogsComponent -->
<g id="node1" class="node">
<title>BlogsComponent</title>
<polygon fill="#ffffb3" stroke="black" points="1038,-122 924,-122 924,-86 1038,-86 1038,-122"/>
<text text-anchor="middle" x="981" y="-99.8" font-family="Times,serif" font-size="14.00">BlogsComponent</text>
</g>
<!-- HomeModule -->
<g id="node4" class="node">
<title>HomeModule</title>
<polygon fill="#8dd3c7" stroke="black" points="591.76,-187 588.76,-191 567.76,-191 564.76,-187 498.24,-187 498.24,-151 591.76,-151 591.76,-187"/>
<text text-anchor="middle" x="545" y="-164.8" font-family="Times,serif" font-size="14.00">HomeModule</text>
</g>
<!-- BlogsComponent&#45;&gt;HomeModule -->
<g id="edge1" class="edge">
<title>BlogsComponent&#45;&gt;HomeModule</title>
<path fill="none" stroke="black" d="M981,-122.29C981,-144.21 981,-178 981,-178 981,-178 602.07,-178 602.07,-178"/>
<polygon fill="black" stroke="black" points="602.07,-174.5 592.07,-178 602.07,-181.5 602.07,-174.5"/>
</g>
<!-- HomeComponent -->
<g id="node2" class="node">
<title>HomeComponent</title>
<polygon fill="#ffffb3" stroke="black" points="905.55,-122 790.45,-122 790.45,-86 905.55,-86 905.55,-122"/>
<text text-anchor="middle" x="848" y="-99.8" font-family="Times,serif" font-size="14.00">HomeComponent</text>
</g>
<!-- HomeComponent&#45;&gt;HomeModule -->
<g id="edge2" class="edge">
<title>HomeComponent&#45;&gt;HomeModule</title>
<path fill="none" stroke="black" d="M848,-122.11C848,-141.34 848,-169 848,-169 848,-169 602.01,-169 602.01,-169"/>
<polygon fill="black" stroke="black" points="602.01,-165.5 592.01,-169 602.01,-172.5 602.01,-165.5"/>
</g>
<!-- UpcomingComponent -->
<g id="node3" class="node">
<title>UpcomingComponent</title>
<polygon fill="#ffffb3" stroke="black" points="772.44,-122 631.56,-122 631.56,-86 772.44,-86 772.44,-122"/>
<text text-anchor="middle" x="702" y="-99.8" font-family="Times,serif" font-size="14.00">UpcomingComponent</text>
</g>
<!-- UpcomingComponent&#45;&gt;HomeModule -->
<g id="edge3" class="edge">
<title>UpcomingComponent&#45;&gt;HomeModule</title>
<path fill="none" stroke="black" d="M702,-122.03C702,-138.4 702,-160 702,-160 702,-160 602.11,-160 602.11,-160"/>
<polygon fill="black" stroke="black" points="602.11,-156.5 592.11,-160 602.11,-163.5 602.11,-156.5"/>
</g>
<!-- HomeRoutingModule -->
<g id="node5" class="node">
<title>HomeRoutingModule</title>
<polygon fill="#8dd3c7" stroke="black" points="279.38,-122 276.38,-126 255.38,-126 252.38,-122 140.62,-122 140.62,-86 279.38,-86 279.38,-122"/>
<text text-anchor="middle" x="210" y="-99.8" font-family="Times,serif" font-size="14.00">HomeRoutingModule</text>
</g>
<!-- HomeRoutingModule&#45;&gt;HomeModule -->
<g id="edge4" class="edge">
<title>HomeRoutingModule&#45;&gt;HomeModule</title>
<path fill="none" stroke="black" d="M210,-122.11C210,-141.34 210,-169 210,-169 210,-169 488.07,-169 488.07,-169"/>
<polygon fill="black" stroke="black" points="488.07,-172.5 498.07,-169 488.07,-165.5 488.07,-172.5"/>
</g>
<!-- SharedModule -->
<g id="node6" class="node">
<title>SharedModule</title>
<polygon fill="#8dd3c7" stroke="black" points="122.42,-122 119.42,-126 98.42,-126 95.42,-122 23.58,-122 23.58,-86 122.42,-86 122.42,-122"/>
<text text-anchor="middle" x="73" y="-99.8" font-family="Times,serif" font-size="14.00">SharedModule</text>
</g>
<!-- SharedModule&#45;&gt;HomeModule -->
<g id="edge5" class="edge">
<title>SharedModule&#45;&gt;HomeModule</title>
<path fill="none" stroke="black" d="M73,-122.29C73,-144.21 73,-178 73,-178 73,-178 488.02,-178 488.02,-178"/>
<polygon fill="black" stroke="black" points="488.02,-181.5 498.02,-178 488.02,-174.5 488.02,-181.5"/>
</g>
<!-- BlogsService -->
<g id="node7" class="node">
<title>BlogsService</title>
<ellipse fill="#fdb462" stroke="black" cx="545" cy="-104" rx="62.56" ry="18"/>
<text text-anchor="middle" x="545" y="-99.8" font-family="Times,serif" font-size="14.00">BlogsService</text>
</g>
<!-- BlogsService&#45;&gt;HomeModule -->
<g id="edge6" class="edge">
<title>BlogsService&#45;&gt;HomeModule</title>
<path fill="none" stroke="black" d="M545,-122.11C545,-122.11 545,-140.99 545,-140.99"/>
<polygon fill="black" stroke="black" points="541.5,-140.99 545,-150.99 548.5,-140.99 541.5,-140.99"/>
</g>
<!-- UpcomingService -->
<g id="node8" class="node">
<title>UpcomingService</title>
<ellipse fill="#fdb462" stroke="black" cx="384" cy="-104" rx="80.52" ry="18"/>
<text text-anchor="middle" x="384" y="-99.8" font-family="Times,serif" font-size="14.00">UpcomingService</text>
</g>
<!-- UpcomingService&#45;&gt;HomeModule -->
<g id="edge7" class="edge">
<title>UpcomingService&#45;&gt;HomeModule</title>
<path fill="none" stroke="black" d="M384,-122.03C384,-138.4 384,-160 384,-160 384,-160 488,-160 488,-160"/>
<polygon fill="black" stroke="black" points="488,-163.5 498,-160 488,-156.5 488,-163.5"/>
</g>
</g>
</svg>
